<svg fill="#ffffff" viewBox="-3.2 -3.2 38.40 38.40" xmlns="http://www.w3.org/2000/svg" stroke="#ffffff"><g id="SVGRepo_bgCarrier" stroke-width="0"></g><g id="SVGRepo_tracerCarrier" stroke-linecap="round" stroke-linejoin="round" stroke="#fafafa" stroke-width="5.12"><path d="M16 15.503A5.041 5.041 0 1 0 16 5.42a5.041 5.041 0 0 0 0 10.083zm0 2.215c-6.703 0-11 3.699-11 5.5v3.363h22v-3.363c0-2.178-4.068-5.5-11-5.5z"></path></g><g id="SVGRepo_iconCarrier"><path d="M16 15.503A5.041 5.041 0 1 0 16 5.42a5.041 5.041 0 0 0 0 10.083zm0 2.215c-6.703 0-11 3.699-11 5.5v3.363h22v-3.363c0-2.178-4.068-5.5-11-5.5z"></path></g></svg>